<svg width="24" height="24" viewBox="0 0 24 24" fill="none" xmlns="http://www.w3.org/2000/svg">
<path d="M19.5 3.75H4.5C3.25736 3.75 2.25 4.75736 2.25 6V18C2.25 19.2426 3.25736 20.25 4.5 20.25H19.5C20.7426 20.25 21.75 19.2426 21.75 18V6C21.75 4.75736 20.7426 3.75 19.5 3.75Z" stroke="white" stroke-width="1.5" stroke-linejoin="round"/>
<path d="M15.75 9.75C16.5784 9.75 17.25 9.07843 17.25 8.25C17.25 7.42157 16.5784 6.75 15.75 6.75C14.9216 6.75 14.25 7.42157 14.25 8.25C14.25 9.07843 14.9216 9.75 15.75 9.75Z" stroke="white" stroke-width="1.5" stroke-miterlimit="10"/>
<path d="M14.25 15.7395L10.0003 11.4978C9.72989 11.2275 9.36642 11.0706 8.9842 11.0593C8.60198 11.0479 8.22986 11.183 7.94391 11.4369L2.25 16.4994" stroke="white" stroke-width="1.5" stroke-linecap="round" stroke-linejoin="round"/>
<path d="M10.5 20.2493L16.2816 14.4677C16.546 14.2028 16.8999 14.0463 17.2738 14.029C17.6477 14.0116 18.0145 14.1347 18.3023 14.374L21.75 17.2493" stroke="white" stroke-width="1.5" stroke-linecap="round" stroke-linejoin="round"/>
</svg>
